<?xml version="1.0" encoding="iso-8859-1"?>
<!-- Uploaded to: SVG Repo, www.svgrepo.com, Generator: SVG Repo Mixer Tools -->
<!DOCTYPE svg PUBLIC "-//W3C//DTD SVG 1.1//EN" "http://www.w3.org/Graphics/SVG/1.1/DTD/svg11.dtd">
<svg fill="#000000" height="800px" width="800px" version="1.1" id="Capa_1" xmlns="http://www.w3.org/2000/svg" xmlns:xlink="http://www.w3.org/1999/xlink" 
	 viewBox="0 0 374.116 374.116" xml:space="preserve">
<g>
	<path d="M344.058,207.506c-16.568,0-30,13.432-30,30v76.609h-254v-76.609c0-16.568-13.432-30-30-30c-16.568,0-30,13.432-30,30
		v106.609c0,16.568,13.432,30,30,30h314c16.568,0,30-13.432,30-30V237.506C374.058,220.938,360.626,207.506,344.058,207.506z"/>
	<path d="M123.57,135.915l33.488-33.488v111.775c0,16.568,13.432,30,30,30c16.568,0,30-13.432,30-30V102.426l33.488,33.488
		c5.857,5.858,13.535,8.787,21.213,8.787c7.678,0,15.355-2.929,21.213-8.787c11.716-11.716,11.716-30.71,0-42.426L208.271,8.788
		c-11.715-11.717-30.711-11.717-42.426,0L81.144,93.489c-11.716,11.716-11.716,30.71,0,42.426
		C92.859,147.631,111.855,147.631,123.57,135.915z"/>
</g>
</svg>